<svg width="64" height="50" viewBox="0 0 64 50" fill="none" xmlns="http://www.w3.org/2000/svg">
<g id="agreement-img">
<path id="Vector" d="M62.1747 20.8732L51.6115 29.1404L45.5831 24.4137L50.1392 20.8732C50.5018 20.5417 50.4773 20.048 50.0829 19.7393C49.6891 19.431 49.0581 19.4119 48.6346 19.6957L44.0681 23.228L41.0588 20.8647L51.6115 12.5976C52.0252 12.2718 52.0252 11.7458 51.6115 11.42C51.1953 11.0962 50.5232 11.0962 50.1069 11.42L38.7862 20.2804C38.5841 20.437 38.4705 20.6506 38.4705 20.8732C38.4705 21.0959 38.5841 21.3091 38.7862 21.4661L40.3013 22.6433L38.7862 23.8294C36.995 22.4264 34.19 22.2029 32.0748 23.2949L31.2427 22.6433C30.2429 21.8629 28.8884 21.4245 27.4759 21.4241C26.8085 21.4241 26.1464 21.5203 25.5233 21.7083L23.6987 20.2804L24.4563 19.6957C24.6584 19.5387 24.772 19.3254 24.772 19.1028C24.772 18.8802 24.6584 18.6665 24.4563 18.5099L13.8613 10.2428C13.443 9.91745 12.7667 9.91949 12.3515 10.2469C11.9357 10.5743 11.9383 11.1032 12.3567 11.4286L22.1623 19.1028L21.4048 19.6871L16.0698 23.8209L12.3035 20.8647C12.103 20.7065 11.8305 20.6176 11.546 20.6176C11.2616 20.6176 10.9886 20.7065 10.7885 20.8647C10.3743 21.1905 10.3743 21.7165 10.7885 22.0423L14.5652 24.9984L13.0501 26.1756L11.6309 27.4033L1.8253 19.6957C1.62524 19.5375 1.35224 19.4486 1.06778 19.4486C0.783315 19.4486 0.510835 19.5375 0.310252 19.6957C-0.103417 20.0215 -0.103417 20.5475 0.310252 20.8732L10.8734 29.1404C11.075 29.2965 11.3475 29.3838 11.6309 29.3826C11.9149 29.3838 12.1874 29.2965 12.389 29.1404L13.8613 27.9628L15.3654 29.1404C13.283 30.7709 13.283 33.4136 15.3654 35.0441L17.3718 36.5891C17.5718 36.7473 17.8448 36.8362 18.1293 36.8362C18.4138 36.8362 18.6862 36.7473 18.8868 36.5891C19.3005 36.2633 19.3005 35.7373 18.8868 35.4115L16.9128 33.867C16.31 33.3968 15.9713 32.7583 15.9713 32.0925C15.9713 31.4262 16.31 30.7877 16.9128 30.3179L17.6599 29.7332L25.2138 23.8209C26.4819 22.8794 28.47 22.8794 29.7381 23.8209L36.5241 29.1318C36.8867 29.4633 36.8622 29.9571 36.4683 30.2657C36.0739 30.574 35.443 30.5932 35.0199 30.3094L30.1007 26.4598C29.6797 26.1324 28.9988 26.134 28.5805 26.4639C28.1621 26.7938 28.1642 27.3263 28.5857 27.6537L33.5044 31.5037C34.4192 32.225 35.7999 32.4427 36.9997 32.0545C38.2001 31.6664 38.9816 30.7493 38.9785 29.7332C38.9774 29.069 38.6398 28.4321 38.0391 27.9628L33.6435 24.5222C34.8689 24.0875 36.3089 24.2792 37.2816 25.0066L46.3406 32.0965C46.9372 32.5671 47.2711 33.204 47.269 33.867C47.2711 34.53 46.9372 35.1665 46.3406 35.637L43.3209 38.0003L40.2268 40.4138L38.0391 42.1341L32.0003 46.8603C31.584 47.184 30.9119 47.184 30.4956 46.8603C30.082 46.5349 30.082 46.0089 30.4956 45.6831L37.3352 40.3551C37.6395 40.1512 37.7724 39.8307 37.6786 39.5257C37.5848 39.2207 37.2805 38.9826 36.8908 38.9092C36.5006 38.8358 36.0916 38.9394 35.8306 39.1779L29.0337 44.4888C28.6107 44.7726 27.9797 44.7535 27.5854 44.4452C27.1915 44.1365 27.167 43.6428 27.5296 43.3113L34.3156 38.0003C34.5177 37.8437 34.6313 37.6301 34.6313 37.4075C34.6313 37.1848 34.5177 36.9716 34.3156 36.8146C33.8993 36.4908 33.2272 36.4908 32.8109 36.8146L26.014 42.1341C25.5983 42.4578 24.9262 42.4578 24.5099 42.1341C24.3078 41.9771 24.1942 41.7638 24.1942 41.5412C24.1942 41.3186 24.3078 41.1049 24.5099 40.9483L31.2959 35.637C31.498 35.4804 31.6116 35.2668 31.6116 35.0441C31.6116 34.8215 31.498 34.6083 31.2959 34.4513C30.8796 34.1275 30.2075 34.1275 29.7912 34.4513L22.9949 39.7708C22.5765 40.0957 21.9003 40.0941 21.485 39.7667C21.0693 39.4393 21.0719 38.91 21.4902 38.585L29.6954 32.1716C30.1137 31.8441 30.1137 31.3132 29.6954 30.9858C29.277 30.6584 28.5987 30.6584 28.1803 30.9858L19.9325 37.4242C18.6842 38.4024 18.6842 39.9869 19.9325 40.9651C20.4837 41.4054 21.2261 41.668 22.0128 41.6998C22.1081 42.9712 23.4075 43.9844 25.0325 44.0546C25.1226 45.3296 26.4235 46.3473 28.0522 46.4179C28.0829 47.0458 28.4143 47.6424 28.9806 48.088C29.9423 48.8391 31.4053 49.0336 32.6296 48.5724L33.5044 49.2656C34.4031 49.9694 35.7493 50.1904 36.9341 49.8283C38.1183 49.4662 38.9165 48.59 38.9675 47.5955C39.7714 47.5763 40.5357 47.3162 41.1015 46.8689C41.6558 46.4334 41.9862 45.854 42.0299 45.2403C43.6591 45.1702 44.9595 44.152 45.0496 42.877C46.3203 42.8374 47.4399 42.2124 47.9026 41.2856C48.3657 40.3583 48.0834 39.3051 47.1836 38.6018L46.4261 38.017L47.9411 36.8313C48.9383 36.0488 49.4984 34.9887 49.4989 33.8833C49.4739 33.0568 49.1358 32.2547 48.5278 31.5787L50.1392 30.3179L50.8967 30.9108C51.313 31.2345 51.9851 31.2345 52.4014 30.9108L63.6897 22.0504C64.1034 21.725 64.1034 21.1986 63.6897 20.8732C63.4897 20.715 63.2167 20.6262 62.9322 20.6262C62.6478 20.6262 62.3753 20.715 62.1747 20.8732V20.8732ZM15.3977 26.777L22.1946 21.4661L23.6987 22.6433L16.9128 27.9628L15.3977 26.777ZM36.5241 48.0379C36.1078 48.3616 35.4357 48.3616 35.0199 48.0379L34.2624 47.445L35.7775 46.2674L36.5241 46.8521C36.7262 47.0087 36.8398 47.2224 36.8398 47.445C36.8398 47.6676 36.7262 47.8813 36.5241 48.0379ZM39.5437 45.6746C39.1275 45.9983 38.4554 45.9983 38.0391 45.6746L37.3352 45.0817L38.0928 44.4888L38.8394 43.9041L39.5974 44.4888C39.799 44.6458 39.9126 44.8591 39.9126 45.0817C39.9126 45.3043 39.799 45.518 39.5974 45.6746H39.5437ZM42.5634 43.3113C42.1471 43.635 41.4751 43.635 41.0588 43.3113L40.3013 42.7184L41.8059 41.5412L42.5634 42.1341C42.9771 42.4599 42.9771 42.9859 42.5634 43.3113V43.3113ZM45.5831 40.9483C45.3825 41.1061 45.11 41.195 44.8256 41.195C44.5411 41.195 44.2681 41.1061 44.0681 40.9483L43.3209 40.3551L44.8042 39.1779L45.5617 39.7708C45.9811 40.0917 45.991 40.6181 45.5831 40.9483V40.9483ZM47.0872 30.3179L40.3013 25.0066L41.8059 23.8294L48.6028 29.1404L47.0872 30.3179Z" fill="#FFBB01"/>
<path id="Vector_2" d="M15.8139 13.3201H34.129C34.5888 13.3201 34.9615 12.9473 34.9615 12.4876V0.832504C34.9615 0.372757 34.5888 0 34.129 0H15.8139C15.3542 0 14.9814 0.372757 14.9814 0.832504V12.4876C14.9814 12.9473 15.3542 13.3201 15.8139 13.3201ZM16.6465 9.99005C17.5659 9.99005 18.3115 10.7356 18.3115 11.6551H16.6465V9.99005ZM33.2965 11.6551H31.6315C31.6315 10.7356 32.377 9.99005 33.2965 9.99005V11.6551ZM33.2965 3.33002C32.377 3.33002 31.6315 2.5845 31.6315 1.66501H33.2965V3.33002ZM33.2965 4.99502V8.32504C31.4571 8.32504 29.9665 9.81607 29.9665 11.6551H19.9765C19.9765 9.81607 18.4854 8.32504 16.6465 8.32504V4.99502C18.4854 4.99502 19.9765 3.504 19.9765 1.66501H29.9665C29.9665 3.504 31.4571 4.99502 33.2965 4.99502ZM16.6465 1.66501H18.3115C18.3115 2.5845 17.5659 3.33002 16.6465 3.33002V1.66501Z" fill="#FFBB01"/>
<path id="Vector_3" d="M24.9713 9.99005C26.8102 9.99005 28.3013 8.49902 28.3013 6.66003C28.3013 4.82104 26.8102 3.33002 24.9713 3.33002C23.1319 3.33002 21.6412 4.82104 21.6412 6.66003C21.6412 8.49902 23.1319 9.99005 24.9713 9.99005ZM24.9713 4.99503C25.8907 4.99503 26.6363 5.74054 26.6363 6.66003C26.6363 7.57953 25.8907 8.32504 24.9713 8.32504C24.0518 8.32504 23.3062 7.57953 23.3062 6.66003C23.3062 5.74054 24.0518 4.99503 24.9713 4.99503Z" fill="#FFBB01"/>
<path id="Vector_4" d="M31.6313 6.66002C31.6313 7.11977 31.2586 7.49252 30.7988 7.49252C30.3391 7.49252 29.9663 7.11977 29.9663 6.66002C29.9663 6.20027 30.3391 5.82751 30.7988 5.82751C31.2586 5.82751 31.6313 6.20027 31.6313 6.66002Z" fill="#FFBB01"/>
<path id="Vector_5" d="M19.9763 6.66002C19.9763 7.11977 19.6035 7.49252 19.1438 7.49252C18.684 7.49252 18.3113 7.11977 18.3113 6.66002C18.3113 6.20027 18.684 5.82751 19.1438 5.82751C19.6035 5.82751 19.9763 6.20027 19.9763 6.66002Z" fill="#FFBB01"/>
<path id="Vector_6" d="M49.805 5.36978L46.475 0.374755C46.3202 0.144272 46.0612 0.00646973 45.784 0.00646973C45.5068 0.00646973 45.2474 0.144272 45.0929 0.374755L41.7629 5.36978C41.6719 5.50514 41.6227 5.66449 41.6215 5.82749V9.15751C41.6215 9.61726 41.9942 9.99001 42.454 9.99001C42.9137 9.99001 43.2865 9.61726 43.2865 9.15751V6.07708L45.784 2.33081L48.2815 6.07708V14.985C48.2815 15.4448 48.6543 15.8175 49.114 15.8175C49.5738 15.8175 49.9465 15.4448 49.9465 14.985V5.82749C49.9453 5.66449 49.8961 5.50514 49.805 5.36978Z" fill="#FFBB01"/>
<path id="Vector_7" d="M46.6166 11.655V6.66002C46.6166 6.20027 46.2438 5.82751 45.784 5.82751C45.3243 5.82751 44.9515 6.20027 44.9515 6.66002V11.655C44.9515 12.1148 45.3243 12.4875 45.784 12.4875C46.2438 12.4875 46.6166 12.1148 46.6166 11.655Z" fill="#FFBB01"/>
<path id="Vector_8" d="M0.828736 7.49256H1.66124V17.4826C1.66124 17.9424 2.034 18.3151 2.49374 18.3151C2.95349 18.3151 3.32625 17.9424 3.32625 17.4826V6.66006C3.32625 6.20031 2.95349 5.82755 2.49374 5.82755H2.44375L4.99126 2.26462L7.53877 5.82755H7.48877C7.02902 5.82755 6.65626 6.20031 6.65626 6.66006V8.32507C6.65626 8.78481 7.02902 9.15757 7.48877 9.15757C7.94852 9.15757 8.32127 8.78481 8.32127 8.32507V7.49256H9.15378C9.46475 7.49094 9.74889 7.31655 9.89075 7.03972C10.0326 6.76331 10.0082 6.43039 9.82815 6.17714L5.66563 0.349612C5.50873 0.133356 5.25832 0.00531006 4.99126 0.00531006C4.72419 0.00531006 4.47338 0.133356 4.31688 0.349612L0.154359 6.17714C-0.0261248 6.43039 -0.0501081 6.76331 0.0917591 7.03972C0.233626 7.31655 0.517767 7.49094 0.828736 7.49256Z" fill="#FFBB01"/>
<path id="Vector_9" d="M4.99121 11.6551V14.1526C4.99121 14.6123 5.36397 14.9851 5.82372 14.9851C6.28346 14.9851 6.65622 14.6123 6.65622 14.1526V11.6551C6.65622 11.1953 6.28346 10.8226 5.82372 10.8226C5.36397 10.8226 4.99121 11.1953 4.99121 11.6551Z" fill="#FFBB01"/>
</g>
</svg>
