<svg width="22" height="39" viewBox="0 0 22 39" fill="none" xmlns="http://www.w3.org/2000/svg">
<g id="offer-img">
<path id="Vector" d="M2.16999 10.9792C2.16478 10.5655 2.15205 10.2129 2.13465 9.99909C2.11723 9.78424 2.09652 9.72612 2.07709 9.83736C2.05768 9.94886 2.04115 10.22 2.03113 10.5913L2.01851 11.0599C2.00651 10.9129 1.99119 10.9994 1.98417 11.254L1.92004 13.5858L1.89808 13.3165C1.89226 13.2447 1.88533 13.2253 1.87884 13.2626C1.87235 13.3002 1.86683 13.3912 1.86348 13.5159C1.85664 13.7733 1.86081 14.1005 1.87283 14.2482L1.8948 14.5175L1.68019 22.4507L1.62717 25.4723L1.60192 26.4792C1.58714 27.0278 1.58872 27.7097 1.60597 28.2243L1.54916 29.7107L1.53326 28.8599C1.52608 28.4807 1.50948 28.2209 1.49038 28.1891C1.47127 28.157 1.45297 28.3584 1.44312 28.709L1.43403 29.0374L1.42545 26.8832C1.42348 26.3735 1.40498 25.9638 1.38118 25.9023C1.35738 25.841 1.33484 26.1452 1.32724 26.6302L1.26513 30.6048C1.26079 30.8859 1.26789 31.1888 1.28103 31.2835C1.2835 31.308 1.28615 31.3227 1.28886 31.3264C1.29971 31.3272 1.30937 31.1796 1.31285 30.9603L1.3747 26.9857L1.38354 29.1721C1.38536 29.6386 1.40108 30.0265 1.42246 30.1322C1.44383 30.2379 1.46595 30.037 1.4772 29.6355L1.48655 29.3067L1.50221 30.1525C1.50885 30.5088 1.52388 30.7631 1.54167 30.8196C1.55946 30.8762 1.57731 30.7265 1.58855 30.427L1.64738 28.8384C1.65389 28.8747 1.66059 28.8928 1.66732 28.8923C1.69438 28.8968 1.71951 28.5928 1.73322 28.0949L1.75846 27.1956L1.85466 24.702L2.07153 16.6718L2.0935 16.9411C2.09935 17.0126 2.10362 17.1307 2.10536 17.2698C2.10711 17.4079 2.10619 17.5552 2.10284 17.679L2.00185 21.4114C1.99804 21.534 1.99675 21.6844 1.99828 21.828C1.99981 21.9713 2.00401 22.0952 2.00993 22.1706C2.01575 22.2427 2.02267 22.2622 2.02916 22.2248C2.03565 22.1872 2.04118 22.0962 2.04452 21.9716L2.14551 18.2392C2.15558 17.8676 2.1583 17.4258 2.15308 17.0113C2.14785 16.5974 2.13514 16.2448 2.11773 16.031L2.09577 15.7617L2.15888 13.4296C2.16577 13.1737 2.16172 12.8471 2.1498 12.6972L2.16242 12.2286C2.17276 11.8512 2.1755 11.4005 2.16999 10.9792V10.9792ZM2.07481 11.1299C2.07815 11.0052 2.0837 10.914 2.09022 10.8769C2.0967 10.8427 2.10356 10.8619 2.1094 10.9308C2.11526 11.0021 2.11952 11.1204 2.12127 11.2593C2.12287 11.3976 2.12197 11.5438 2.11874 11.6685L2.10612 12.1371L2.06218 11.5985L2.07481 11.1299ZM1.73069 26.1671L1.71807 26.0109L1.6807 25.5475L1.71655 23.501L1.79608 24.4811L1.73069 26.1671ZM1.65495 27.7234C1.64428 27.5648 1.641 27.2597 1.64738 27.0178L1.66 26.5494L1.70393 27.088L1.6913 27.5511C1.68776 27.6821 1.68182 27.7752 1.67491 27.808C1.66799 27.8406 1.66075 27.8101 1.65495 27.7234ZM1.82486 23.5981L1.73751 22.5209L1.93949 15.0561L2.02684 16.1333L1.82486 23.5981ZM2.05209 15.2015L1.96473 14.1244L2.01523 12.2609L2.10258 13.3381L2.05209 15.2015Z" fill="#FFBB01"/>
<path id="Vector_2" d="M1.0562 27.457L0.96684 29.3583L0.913313 28.2164C0.903463 28.0076 0.88756 28.0076 0.87771 28.2164C0.872927 28.3177 0.870239 28.4552 0.870239 28.5988C0.870239 28.7424 0.872927 28.8802 0.87771 28.9812L0.931237 30.123C0.940705 30.3234 0.953501 30.4357 0.96684 30.4354C0.980253 30.437 0.99316 30.3247 1.00269 30.123L1.09181 28.2164C1.10039 28.0027 1.09981 27.6842 1.09049 27.4854C1.08116 27.2863 1.06623 27.2739 1.0562 27.457Z" fill="#FFBB01"/>
<path id="Vector_3" d="M0.75882 28.9058C0.75882 31.4343 0.854903 33.4836 0.973422 33.4836C1.09194 33.4836 1.18802 31.4343 1.18802 28.9058C1.18802 28.6083 1.17672 28.3672 1.16278 28.3672C1.14883 28.3672 1.13753 28.6083 1.13753 28.9058C1.13753 30.8392 1.06406 32.4065 0.973422 32.4065C0.882788 32.4065 0.809314 30.8392 0.809314 28.9058C0.809314 26.9724 0.882788 25.405 0.973422 25.405C1.00895 25.4029 1.04353 25.6488 1.07188 26.1053C1.08304 26.2839 1.09887 26.2355 1.10723 25.9975C1.1156 25.7595 1.11334 25.4221 1.10219 25.2436C1.03716 24.2032 0.950147 24.036 0.87745 24.8112C0.804741 25.5868 0.75882 27.172 0.75882 28.9058Z" fill="#FFBB01"/>
<path id="Vector_4" d="M1.56672 7.63208C1.58066 7.63208 1.59197 7.39119 1.59197 7.0935C1.59197 6.79608 1.58066 6.55493 1.56672 6.55493H0.910288C0.896345 6.55493 0.88504 6.79608 0.88504 7.0935V9.2478C0.88504 9.54549 0.896345 9.78637 0.910288 9.78637H1.56672C1.58066 9.78637 1.59197 9.54549 1.59197 9.2478C1.59197 8.95037 1.58066 8.70922 1.56672 8.70922H0.935535V7.63208H1.56672Z" fill="#FFBB01"/>
<path id="Vector_5" d="M0.986032 10.8636C0.97209 10.8636 0.960785 11.1047 0.960785 11.4021C0.960785 11.6998 0.97209 11.9407 0.986032 11.9407H1.49098C1.50492 11.9407 1.51623 11.6998 1.51623 11.4021C1.51623 11.1047 1.50492 10.8636 1.49098 10.8636H0.986032Z" fill="#FFBB01"/>
<path id="Vector_6" d="M1.64246 14.6335H1.08701C1.07307 14.6335 1.06177 14.8747 1.06177 15.1721C1.06177 15.4698 1.07307 15.7107 1.08701 15.7107H1.64246C1.6564 15.7107 1.6677 15.4698 1.6677 15.1721C1.6677 14.8747 1.6564 14.6335 1.64246 14.6335Z" fill="#FFBB01"/>
<path id="Vector_7" d="M1.39001 18.4036C1.39001 18.1061 1.3787 17.865 1.36476 17.865H0.859812C0.845869 17.865 0.834564 18.1061 0.834564 18.4036C0.834564 18.7013 0.845869 18.9421 0.859812 18.9421H1.36476C1.3787 18.9421 1.39001 18.7013 1.39001 18.4036Z" fill="#FFBB01"/>
<path id="Vector_8" d="M1.64247 17.865H1.46574C1.4518 17.865 1.44049 18.1061 1.44049 18.4036C1.44049 18.7013 1.4518 18.9421 1.46574 18.9421H1.64247C1.65641 18.9421 1.66772 18.7013 1.66772 18.4036C1.66772 18.1061 1.65641 17.865 1.64247 17.865Z" fill="#FFBB01"/>
<path id="Vector_9" d="M1.11229 21.635C1.12623 21.635 1.13753 21.3941 1.13753 21.0964C1.13753 20.799 1.12623 20.5579 1.11229 20.5579H0.859812C0.845869 20.5579 0.834564 20.799 0.834564 21.0964C0.834564 21.3941 0.845869 21.635 0.859812 21.635H1.11229Z" fill="#FFBB01"/>
<path id="Vector_10" d="M1.21327 21.635H1.39C1.40394 21.635 1.41525 21.3941 1.41525 21.0964C1.41525 20.799 1.40394 20.5579 1.39 20.5579H1.21327C1.19932 20.5579 1.18802 20.799 1.18802 21.0964C1.18802 21.3941 1.19932 21.635 1.21327 21.635Z" fill="#FFBB01"/>
<path id="Vector_11" d="M1.17692 24.9135C1.43227 24.9893 1.63914 25.292 1.63895 25.5894L1.63543 30.9755C1.63524 31.2732 1.84211 31.5756 2.09746 31.6515L20.5925 37.1434C20.8478 37.2192 21.055 37.0398 21.0552 36.7421L21.0742 7.65698C21.0744 7.35953 20.8675 7.05689 20.6122 6.98107L2.11714 1.48913C1.86179 1.41331 1.65461 1.593 1.65441 1.89044L1.64781 12.0057C1.64762 12.3032 1.44043 12.4829 1.18508 12.4071C0.929739 12.3312 0.722866 12.0286 0.72306 11.7311L0.729661 1.61585C0.730243 0.723505 1.35181 0.184435 2.11784 0.411903L20.6129 5.90384C21.3789 6.13131 21.9995 7.03923 21.9989 7.93157L21.98 37.0167C21.9794 37.9093 21.3578 38.4481 20.5918 38.2206L2.09675 32.7287C1.33072 32.5012 0.710099 31.5935 0.710681 30.7009L0.714196 25.3148C0.71439 25.0174 0.921578 24.8377 1.17692 24.9135Z" fill="#FFBB01"/>
</g>
</svg>
