<svg width="50" height="50" viewBox="0 0 50 50" fill="none" xmlns="http://www.w3.org/2000/svg">
<g id="steps-img">
<path id="Vector" d="M48.3277 35.635V33.335H49.1609C49.3908 33.3367 49.6109 33.2431 49.7692 33.0767C49.9107 32.9184 49.9909 32.7142 49.9941 32.5018L48.5026 4.17177C48.3606 1.87874 46.459 0.0914307 44.1615 0.0914307C41.864 0.0914307 39.9624 1.87874 39.8204 4.17177L38.3288 32.5018C38.3219 32.7288 38.4025 32.9493 38.5538 33.1186C38.719 33.2695 38.9383 33.3477 39.1621 33.335H39.9953V35.635L38.4204 38.793C38.3016 39.0286 38.3016 39.3068 38.4204 39.5428L43.4198 49.5417C43.4605 49.6336 43.5203 49.7158 43.5947 49.7833C43.692 49.8732 43.8092 49.9392 43.9365 49.975H44.3946C44.5224 49.9392 44.6395 49.8732 44.7364 49.7833C44.8112 49.7158 44.8706 49.6336 44.9113 49.5417L49.9107 39.5428C50.0295 39.3068 50.0295 39.0286 49.9107 38.793L48.3277 35.635ZM40.0368 31.6686L40.3871 25.0027H47.9359L48.3277 31.6686H40.0368ZM41.4868 4.21367C41.4868 2.73639 42.6842 1.53861 44.1615 1.53861C45.6388 1.53861 46.8362 2.73639 46.8362 4.21367L47.8443 23.3781H40.4787L40.5702 21.7116H45.2112C45.6717 21.7116 46.0444 21.3386 46.0444 20.8784C46.0444 20.4178 45.6717 20.0452 45.2112 20.0452H40.6536L41.4868 4.21367ZM46.6612 33.335V35.0015H41.6618V33.335H46.6612ZM44.9947 45.6338V40.0009H45.828C46.2881 40.0009 46.6612 39.6279 46.6612 39.1677C46.6612 38.7076 46.2881 38.3345 45.828 38.3345H42.495C42.0349 38.3345 41.6618 38.7076 41.6618 39.1677C41.6618 39.6279 42.0349 40.0009 42.495 40.0009H43.3283V45.6338L40.0954 39.1677L41.3453 36.668H46.9777L48.2276 39.1677L44.9947 45.6338Z" fill="#FFBB01"/>
<path id="Vector_2" d="M28.3301 10.8377C28.7902 10.8377 29.1633 10.4646 29.1633 10.0044C29.1633 9.54429 28.7902 9.1712 28.3301 9.1712H6.66594C6.20579 9.1712 5.8327 9.54429 5.8327 10.0044V13.3374C5.8327 13.7975 6.20579 14.1706 6.66594 14.1706H28.3301C28.7902 14.1706 29.1633 13.7975 29.1633 13.3374C29.1633 12.8772 28.7902 12.5041 28.3301 12.5041H7.49917V10.8377H28.3301Z" fill="#FFBB01"/>
<path id="Vector_3" d="M29.1633 18.3368C29.1633 17.8766 28.7902 17.5035 28.3301 17.5035H9.99889C9.53873 17.5035 9.16565 17.8766 9.16565 18.3368C9.16565 18.7969 9.53873 19.17 9.99889 19.17H28.3301C28.7902 19.17 29.1633 18.7969 29.1633 18.3368Z" fill="#FFBB01"/>
<path id="Vector_4" d="M4.99945 22.5029C4.99945 22.9631 5.37254 23.3362 5.83269 23.3362H19.1645C19.6246 23.3362 19.9977 22.9631 19.9977 22.5029C19.9977 22.0428 19.6246 21.6697 19.1645 21.6697H5.83269C5.37254 21.6697 4.99945 22.0428 4.99945 22.5029Z" fill="#FFBB01"/>
<path id="Vector_5" d="M24.1639 21.6697C23.7038 21.6697 23.3307 22.0428 23.3307 22.5029C23.3307 22.9631 23.7038 23.3362 24.1639 23.3362H27.4969C27.957 23.3362 28.3301 22.9631 28.3301 22.5029C28.3301 22.0428 27.957 21.6697 27.4969 21.6697H24.1639Z" fill="#FFBB01"/>
<path id="Vector_6" d="M16.6648 26.6691C16.6648 26.209 16.2917 25.8359 15.8315 25.8359H5.83269C5.37254 25.8359 4.99945 26.209 4.99945 26.6691C4.99945 27.1292 5.37254 27.5023 5.83269 27.5023H15.8315C16.2917 27.5023 16.6648 27.1292 16.6648 26.6691Z" fill="#FFBB01"/>
<path id="Vector_7" d="M15.8315 30.8354C15.8315 30.3752 15.4584 30.0021 14.9983 30.0021H5.83269C5.37254 30.0021 4.99945 30.3752 4.99945 30.8354C4.99945 31.2955 5.37254 31.6686 5.83269 31.6686H14.9983C15.4584 31.6686 15.8315 31.2955 15.8315 30.8354Z" fill="#FFBB01"/>
<path id="Vector_8" d="M5.83269 34.1683C5.37254 34.1683 4.99945 34.5414 4.99945 35.0015C4.99945 35.4617 5.37254 35.8348 5.83269 35.8348H11.6653C12.1255 35.8348 12.4986 35.4617 12.4986 35.0015C12.4986 34.5414 12.1255 34.1683 11.6653 34.1683H5.83269Z" fill="#FFBB01"/>
<path id="Vector_9" d="M32.4962 0.0055542H2.49971C1.11925 0.0055542 0 1.12481 0 2.50526V40.8341C0 42.2146 1.11925 43.3339 2.49971 43.3339H16.6647C17.1249 43.3339 17.498 42.9608 17.498 42.5006C17.498 42.0405 17.1249 41.6674 16.6647 41.6674H2.49971C2.03956 41.6674 1.66647 41.2943 1.66647 40.8341V7.50468H33.3295V40.8341C33.3295 41.2943 32.9564 41.6674 32.4962 41.6674H29.9965C29.5364 41.6674 29.1633 42.0405 29.1633 42.5006C29.1633 42.9608 29.5364 43.3339 29.9965 43.3339H32.4962C33.8767 43.3339 34.9959 42.2146 34.9959 40.8341V2.50526C34.9959 1.12481 33.8767 0.0055542 32.4962 0.0055542ZM1.66647 5.83821V2.50526C1.66647 2.04511 2.03956 1.67203 2.49971 1.67203H32.4962C32.9564 1.67203 33.3295 2.04511 33.3295 2.50526V5.83821H1.66647Z" fill="#FFBB01"/>
<path id="Vector_10" d="M23.3306 30.8353C21.9501 30.8353 20.8309 31.9545 20.8309 33.335C20.8309 34.7154 21.9501 35.8347 23.3306 35.8347C24.711 35.8347 25.8303 34.7154 25.8303 33.335C25.8303 31.9545 24.711 30.8353 23.3306 30.8353ZM23.3306 34.1682C22.8704 34.1682 22.4973 33.7951 22.4973 33.335C22.4973 32.8748 22.8704 32.5017 23.3306 32.5017C23.7907 32.5017 24.1638 32.8748 24.1638 33.335C24.1638 33.7951 23.7907 34.1682 23.3306 34.1682Z" fill="#FFBB01"/>
<path id="Vector_11" d="M29.9965 33.335C29.9953 32.409 29.4826 31.5591 28.6632 31.127C28.9358 30.2417 28.6966 29.2786 28.042 28.6236C27.3869 27.969 26.4239 27.7298 25.5386 28.0023C25.1049 27.1854 24.2558 26.6744 23.3306 26.6744C22.4054 26.6744 21.5563 27.1854 21.1226 28.0023C20.2373 27.7298 19.2743 27.969 18.6192 28.6236C17.9646 29.2786 17.7254 30.2417 17.998 31.127C17.1806 31.5607 16.67 32.4098 16.67 33.335C16.67 34.2602 17.1806 35.1097 17.998 35.543C17.7254 36.4263 17.9626 37.3877 18.6143 38.0427C18.7771 38.205 18.9622 38.3425 19.1644 38.4512V49.1665C19.166 49.503 19.3699 49.8052 19.6811 49.933C19.9911 50.0636 20.3496 49.9944 20.5892 49.7581L23.3306 47.0085L26.072 49.7581C26.229 49.9143 26.4422 50.0009 26.6635 49.9997C26.773 50.0026 26.8812 49.9798 26.9801 49.933C27.2913 49.8052 27.4951 49.503 27.4968 49.1665V38.4593C27.699 38.3507 27.8841 38.2132 28.0468 38.0512C28.6986 37.3958 28.9358 36.4348 28.6632 35.5515C29.4851 35.1178 29.9985 34.2642 29.9965 33.335ZM23.9222 45.242C23.7659 45.0841 23.5527 44.9954 23.3306 44.9954C23.1084 44.9954 22.8953 45.0841 22.739 45.242L20.8309 47.1583V38.7429L21.1226 38.6676C21.5563 39.485 22.4054 39.9956 23.3306 39.9956C24.2558 39.9956 25.1049 39.485 25.5386 38.6676L25.8303 38.7429V47.1583L23.9222 45.242ZM27.4968 34.1682H27.3552C27.0159 34.1666 26.7091 34.3708 26.5801 34.6849C26.452 34.997 26.5244 35.3554 26.7636 35.593L26.8637 35.6931C27.1867 36.0182 27.1867 36.543 26.8637 36.8681C26.7718 36.9645 26.657 37.0361 26.5301 37.0764H26.4052C26.1428 37.1171 25.8767 37.0304 25.6887 36.8429L25.5886 36.7428C25.3502 36.5027 24.9901 36.4303 24.6777 36.5601C24.3648 36.6899 24.1618 36.9963 24.1638 37.3348V37.5012C24.1638 37.9613 23.7907 38.3344 23.3306 38.3344C22.8704 38.3344 22.4974 37.9613 22.4974 37.5012V37.3596C22.499 37.0203 22.2947 36.7135 21.9806 36.5845C21.8802 36.5447 21.7723 36.5251 21.6641 36.5263C21.4428 36.5251 21.2296 36.6122 21.0725 36.768L20.9725 36.8681C20.7845 37.0557 20.5184 37.1423 20.256 37.1012H20.1311C20.0041 37.0614 19.8894 36.9898 19.7975 36.8929C19.4744 36.5678 19.4744 36.043 19.7975 35.7179L19.9061 35.6182C20.1453 35.3802 20.2177 35.0218 20.0892 34.7097C19.9602 34.3961 19.6538 34.1914 19.3145 34.1934H19.1644C18.7043 34.1934 18.3312 33.8204 18.3312 33.3602C18.3312 32.8997 18.7043 32.527 19.1644 32.527H19.306C19.6453 32.5286 19.9521 32.324 20.081 32.0103C20.2092 31.6982 20.1368 31.3398 19.8976 31.1018L19.7975 31.0021C19.4708 30.6774 19.4691 30.1497 19.7934 29.823C20.1181 29.4963 20.6458 29.4943 20.9725 29.819L21.0725 29.9272C21.3102 30.1664 21.669 30.2388 21.9806 30.1103C22.2947 29.9813 22.499 29.6749 22.4974 29.3356V29.1688C22.4974 28.7086 22.8704 28.3356 23.3306 28.3356C23.7907 28.3356 24.1638 28.7086 24.1638 29.1688V29.3104C24.1622 29.6501 24.3664 29.9565 24.6805 30.0854C24.9922 30.2136 25.351 30.1416 25.5886 29.902L25.6887 29.8023C26.013 29.4756 26.5411 29.4735 26.8678 29.7978C27.1945 30.1225 27.1961 30.6502 26.8718 30.9769L26.7636 31.0769C26.5244 31.3145 26.452 31.6734 26.5801 31.985C26.7091 32.2991 27.0159 32.5034 27.3552 32.5017H27.4968C27.9569 32.5017 28.33 32.8748 28.33 33.335C28.33 33.7951 27.9569 34.1682 27.4968 34.1682Z" fill="#FFBB01"/>
</g>
</svg>
