<svg width="50" height="50" viewBox="0 0 50 50" fill="none" xmlns="http://www.w3.org/2000/svg">
<g id="storage-img">
<path id="Vector" d="M49.1667 24.1665H30.1082C29.648 24.1665 29.2749 24.5396 29.2749 24.9998C29.2749 25.46 29.648 25.8332 30.1082 25.8332H48.3333V34.1665H44.1667V28.3332C44.1667 27.873 43.7935 27.4998 43.3333 27.4998C42.8731 27.4998 42.5 27.873 42.5 28.3332V34.1665H20V25.8332H25C25.4602 25.8332 25.8333 25.46 25.8333 24.9998C25.8333 24.5396 25.4602 24.1665 25 24.1665H19.1667C18.7065 24.1665 18.3333 24.5396 18.3333 24.9998V34.9998C18.3333 35.46 18.7065 35.8332 19.1667 35.8332H26.6667V37.4998H19.1667C18.7065 37.4998 18.3333 37.873 18.3333 38.3332V44.1665H15.8333V43.3332C15.8333 42.873 15.4602 42.4998 15 42.4998H12.5V38.3332C12.5 37.873 12.1269 37.4998 11.6667 37.4998C11.2065 37.4998 10.8333 37.873 10.8333 38.3332V43.3332C10.8333 43.7934 11.2065 44.1665 11.6667 44.1665H14.1667V45.8332H5.83333V44.1665H8.33333C8.79354 44.1665 9.16667 43.7934 9.16667 43.3332V38.3332C9.16667 37.873 8.79354 37.4998 8.33333 37.4998C7.87313 37.4998 7.5 37.873 7.5 38.3332V42.4998H5C4.53979 42.4998 4.16667 42.873 4.16667 43.3332V44.1665H0.833333C0.373128 44.1665 0 44.5396 0 44.9998C0 45.46 0.373128 45.8332 0.833333 45.8332H4.16667V46.6665C4.16667 47.1267 4.53979 47.4998 5 47.4998H15C15.4602 47.4998 15.8333 47.1267 15.8333 46.6665V45.8332H18.3333V48.3332C18.3333 48.7934 18.7065 49.1665 19.1667 49.1665H49.1667C49.6269 49.1665 50 48.7934 50 48.3332V38.3332C50 37.873 49.6269 37.4998 49.1667 37.4998H41.6667V35.8332H49.1667C49.6269 35.8332 50 35.46 50 34.9998V24.9998C50 24.5396 49.6269 24.1665 49.1667 24.1665ZM48.3333 47.4998H20V39.1665H42.5V44.9998C42.5 45.46 42.8731 45.8332 43.3333 45.8332C43.7935 45.8332 44.1667 45.46 44.1667 44.9998V39.1665H48.3333V47.4998ZM40 37.4998H28.3333V35.8332H40V37.4998Z" fill="#FFBB01"/>
<path id="Vector_2" d="M24.9999 27.4998C23.6193 27.4998 22.4999 28.6192 22.4999 29.9998C22.4999 31.3808 23.6193 32.4998 24.9999 32.4998C26.3805 32.4998 27.4999 31.3808 27.4999 29.9998C27.4999 28.6192 26.3805 27.4998 24.9999 27.4998ZM24.9999 30.8332C24.5397 30.8332 24.1665 30.46 24.1665 29.9998C24.1665 29.5396 24.5397 29.1665 24.9999 29.1665C25.4601 29.1665 25.8332 29.5396 25.8332 29.9998C25.8332 30.46 25.4601 30.8332 24.9999 30.8332Z" fill="#FFBB01"/>
<path id="Vector_3" d="M30.0001 32.4998C30.4603 32.4998 30.8334 32.1267 30.8334 31.6665V28.3332C30.8334 27.8729 30.4603 27.4998 30.0001 27.4998C29.5399 27.4998 29.1667 27.8729 29.1667 28.3332V31.6665C29.1667 32.1267 29.5399 32.4998 30.0001 32.4998Z" fill="#FFBB01"/>
<path id="Vector_4" d="M34.1667 31.6665V28.3332C34.1667 27.8729 33.7935 27.4998 33.3333 27.4998C32.8731 27.4998 32.5 27.8729 32.5 28.3332V31.6665C32.5 32.1267 32.8731 32.4998 33.3333 32.4998C33.7935 32.4998 34.1667 32.1267 34.1667 31.6665Z" fill="#FFBB01"/>
<path id="Vector_5" d="M37.4999 31.6665V28.3332C37.4999 27.8729 37.1268 27.4998 36.6666 27.4998C36.2064 27.4998 35.8333 27.8729 35.8333 28.3332V31.6665C35.8333 32.1267 36.2064 32.4998 36.6666 32.4998C37.1268 32.4998 37.4999 32.1267 37.4999 31.6665Z" fill="#FFBB01"/>
<path id="Vector_6" d="M40.8332 31.6665V28.3332C40.8332 27.8729 40.46 27.4998 39.9998 27.4998C39.5396 27.4998 39.1665 27.8729 39.1665 28.3332V31.6665C39.1665 32.1267 39.5396 32.4998 39.9998 32.4998C40.46 32.4998 40.8332 32.1267 40.8332 31.6665Z" fill="#FFBB01"/>
<path id="Vector_7" d="M26.6665 42.4999C26.2063 42.4999 25.8332 42.873 25.8332 43.3332C25.8332 43.7934 25.4601 44.1665 24.9999 44.1665C24.5397 44.1665 24.1665 43.7934 24.1665 43.3332C24.1665 42.873 24.5397 42.4999 24.9999 42.4999C25.4601 42.4999 25.8332 42.1267 25.8332 41.6665C25.8332 41.2063 25.4601 40.8332 24.9999 40.8332C23.6193 40.8332 22.4999 41.9526 22.4999 43.3332C22.4999 44.7142 23.6193 45.8332 24.9999 45.8332C26.3805 45.8332 27.4999 44.7142 27.4999 43.3332C27.4999 42.873 27.1267 42.4999 26.6665 42.4999Z" fill="#FFBB01"/>
<path id="Vector_8" d="M30.0001 40.8332C29.5399 40.8332 29.1667 41.2063 29.1667 41.6665V44.9999C29.1667 45.4601 29.5399 45.8332 30.0001 45.8332C30.4603 45.8332 30.8334 45.4601 30.8334 44.9999V41.6665C30.8334 41.2063 30.4603 40.8332 30.0001 40.8332Z" fill="#FFBB01"/>
<path id="Vector_9" d="M33.3333 40.8332C32.8731 40.8332 32.5 41.2063 32.5 41.6665V44.9999C32.5 45.4601 32.8731 45.8332 33.3333 45.8332C33.7935 45.8332 34.1667 45.4601 34.1667 44.9999V41.6665C34.1667 41.2063 33.7935 40.8332 33.3333 40.8332Z" fill="#FFBB01"/>
<path id="Vector_10" d="M36.6666 40.8332C36.2064 40.8332 35.8333 41.2063 35.8333 41.6665V44.9999C35.8333 45.4601 36.2064 45.8332 36.6666 45.8332C37.1268 45.8332 37.4999 45.4601 37.4999 44.9999V41.6665C37.4999 41.2063 37.1268 40.8332 36.6666 40.8332Z" fill="#FFBB01"/>
<path id="Vector_11" d="M39.9998 40.8332C39.5396 40.8332 39.1665 41.2063 39.1665 41.6665V44.9999C39.1665 45.4601 39.5396 45.8332 39.9998 45.8332C40.46 45.8332 40.8332 45.4601 40.8332 44.9999V41.6665C40.8332 41.2063 40.46 40.8332 39.9998 40.8332Z" fill="#FFBB01"/>
<path id="Vector_12" d="M6.31676 29.8416C6.42703 29.8904 6.54625 29.9157 6.66669 29.9165C7.05284 29.9108 7.38406 29.6402 7.46747 29.2634C7.55048 28.8862 7.36412 28.5017 7.01663 28.3332C3.09939 26.538 0.961124 22.257 1.8795 18.0468C2.79747 13.8366 6.52428 10.8345 10.8334 10.8332C11.6789 10.8328 12.5204 10.9504 13.3334 11.1832C13.7484 11.3032 14.1858 11.0859 14.3417 10.6835C16.4388 5.24404 21.6704 1.65924 27.5 1.66656C34.1398 1.69912 39.8771 6.31337 41.3334 12.7916C41.4079 13.1257 41.6789 13.38 42.0166 13.4333C45.6535 14.0144 48.3305 17.1504 48.3334 20.8332C48.3297 21.0757 48.313 21.3179 48.2833 21.5583C48.2528 21.7821 48.3146 22.0092 48.4542 22.1866C48.5942 22.364 48.8001 22.4771 49.0251 22.4999C49.2477 22.5231 49.4702 22.456 49.6424 22.3131C49.8149 22.1707 49.9227 21.9648 49.9418 21.7418C49.9785 21.4403 49.998 21.1372 50 20.8332C50.0171 16.5364 47.0309 12.8108 42.8333 11.8916C41.0034 4.91363 34.714 0.0357046 27.5 -0.000102722C21.2403 -0.0200408 15.5636 3.67055 13.0416 9.40012C12.3161 9.24428 11.5755 9.16575 10.8334 9.16656C5.74547 9.17185 1.34687 12.7172 0.260847 17.6879C-0.824765 22.6586 1.69436 27.7151 6.31676 29.8416Z" fill="#FFBB01"/>
<path id="Vector_13" d="M13.3333 30.5085C13.4021 30.5203 13.4729 30.5203 13.5417 30.5085C14.4918 30.2668 15.4032 29.8936 16.25 29.4001C16.4416 29.2886 16.5808 29.1055 16.637 28.8914C16.6931 28.677 16.6618 28.4495 16.5499 28.2583C16.3184 27.8644 15.813 27.7305 15.4167 27.9584C14.6989 28.3743 13.9278 28.6912 13.125 28.9C12.6648 28.9574 12.3385 29.3773 12.3958 29.8375C12.4532 30.2977 12.8731 30.624 13.3333 30.5667V30.5085Z" fill="#FFBB01"/>
<path id="Vector_14" d="M10.0001 35.8332C10.4603 35.8332 10.8335 35.46 10.8335 34.9998V21.9167L12.6417 24.6251C12.7951 24.8578 13.0547 24.9986 13.3335 24.9998C13.4974 25.0019 13.6578 24.9522 13.7916 24.8582C14.1721 24.6039 14.2762 24.0908 14.0252 23.7083L10.6919 18.7083C10.6919 18.7083 10.6919 18.7083 10.6499 18.6664C10.4921 18.4695 10.2528 18.3547 10.0001 18.3547C9.74744 18.3547 9.50818 18.4695 9.3503 18.6664C9.3503 18.6664 9.3503 18.6664 9.30839 18.7083L5.97506 23.7083C5.77161 24.0876 5.89043 24.5592 6.24931 24.7968C6.60779 25.0344 7.08834 24.96 7.35852 24.6251L9.16679 21.9167V34.9998C9.16679 35.46 9.53992 35.8332 10.0001 35.8332Z" fill="#FFBB01"/>
<path id="Vector_15" d="M31.2914 15.1415C30.9094 14.8904 30.3959 14.9946 30.1415 15.375L28.3333 18.0834V8.33321C28.3333 7.87301 27.9602 7.49988 27.4999 7.49988C27.0397 7.49988 26.6666 7.87301 26.6666 8.33321V18.0834L24.8584 15.375C24.7086 15.0963 24.4144 14.9262 24.0983 14.936C23.7821 14.9458 23.4989 15.1333 23.3667 15.4206C23.2348 15.7079 23.2767 16.0452 23.4749 16.2918L26.8082 21.2918C26.9632 21.5221 27.2224 21.66 27.4999 21.66C27.7775 21.66 28.0366 21.5221 28.1917 21.2918L31.525 16.2918C31.7761 15.9093 31.6719 15.3958 31.2914 15.1415Z" fill="#FFBB01"/>
</g>
</svg>
