<svg width="16" height="14" viewBox="0 0 16 14" fill="none" xmlns="http://www.w3.org/2000/svg">
<path d="M12.1465 8.28348C11.8472 8.00516 11.4862 7.85636 11.1036 7.85636C10.7241 7.85636 10.36 8.00241 10.0483 8.28072L9.07334 9.14874C8.99312 9.11016 8.9129 9.07434 8.83576 9.03851C8.72469 8.98891 8.61978 8.94207 8.5303 8.89247C7.617 8.37441 6.78701 7.69929 5.99097 6.82576C5.60528 6.39038 5.3461 6.02388 5.15789 5.65187C5.4109 5.4452 5.64539 5.23026 5.87372 5.02359C5.96011 4.94644 6.0465 4.86652 6.1329 4.78937C6.78084 4.21069 6.78084 3.46116 6.1329 2.88249L5.29057 2.13021C5.19492 2.04478 5.09618 1.9566 5.00362 1.86842C4.81849 1.69758 4.62411 1.52122 4.42355 1.35588C4.12426 1.09134 3.76635 0.950806 3.38992 0.950806C3.01349 0.950806 2.64941 1.09134 2.34086 1.35588C2.33778 1.35864 2.33778 1.35864 2.33469 1.36139L1.28564 2.30656C0.890696 2.65928 0.665457 3.08916 0.61609 3.58792C0.542039 4.39256 0.807388 5.14209 1.01103 5.63258C1.51087 6.83678 2.25756 7.95281 3.37141 9.14874C4.72284 10.5899 6.34888 11.728 8.20633 12.5299C8.91598 12.8302 9.86322 13.1857 10.9215 13.2463C10.9863 13.2491 11.0542 13.2518 11.1159 13.2518C11.8287 13.2518 12.4272 13.0231 12.8962 12.5684C12.8993 12.5629 12.9055 12.5602 12.9086 12.5547C13.069 12.3811 13.2541 12.224 13.4485 12.0559C13.5812 11.9429 13.717 11.8244 13.8496 11.7004C14.1551 11.4166 14.3155 11.0859 14.3155 10.747C14.3155 10.4053 14.152 10.0774 13.8404 9.80182L12.1465 8.28348ZM13.2511 11.1851C13.248 11.1851 13.248 11.1879 13.2511 11.1851C13.1307 11.3009 13.0073 11.4056 12.8746 11.5213C12.6741 11.6922 12.4704 11.8713 12.2791 12.0724C11.9675 12.37 11.6003 12.5106 11.119 12.5106C11.0727 12.5106 11.0234 12.5106 10.9771 12.5078C10.0607 12.4555 9.2091 12.1358 8.57041 11.863C6.82404 11.108 5.29057 10.036 4.01627 8.67753C2.96413 7.54498 2.26064 6.49784 1.79474 5.37356C1.50779 4.68741 1.40288 4.15282 1.44916 3.64855C1.48002 3.32614 1.61887 3.05885 1.87496 2.83013L2.9271 1.89047C3.07829 1.76371 3.23873 1.69482 3.39609 1.69482C3.59048 1.69482 3.74783 1.79953 3.84657 1.88771C3.84965 1.89047 3.85274 1.89322 3.85583 1.89598C4.04404 2.05305 4.223 2.21563 4.41121 2.38923C4.50686 2.47741 4.60559 2.56559 4.70433 2.65653L5.54666 3.40881C5.87372 3.7009 5.87372 3.97095 5.54666 4.26305C5.45718 4.34296 5.37079 4.42287 5.28131 4.50003C5.02213 4.73701 4.77529 4.95746 4.50686 5.1724C4.50069 5.17791 4.49452 5.18066 4.49143 5.18617C4.22608 5.42316 4.27545 5.65463 4.33099 5.8117C4.33407 5.81996 4.33716 5.82823 4.34024 5.8365C4.55931 6.31046 4.86786 6.75687 5.33685 7.2887L5.33993 7.29146C6.19152 8.22837 7.08939 8.9586 8.07982 9.51799C8.20633 9.58964 8.33592 9.6475 8.45933 9.70262C8.57041 9.75222 8.67532 9.79906 8.7648 9.84866C8.77714 9.85417 8.78948 9.86244 8.80182 9.86795C8.90673 9.9148 9.00546 9.93684 9.10728 9.93684C9.36338 9.93684 9.52382 9.79355 9.57627 9.74671L10.6315 8.80429C10.7364 8.7106 10.903 8.59762 11.0974 8.59762C11.2887 8.59762 11.4461 8.70509 11.5417 8.79878C11.5448 8.80153 11.5448 8.80153 11.5479 8.80429L13.248 10.3226C13.5658 10.6037 13.5658 10.893 13.2511 11.1851Z" fill="#949494"/>
<path d="M8.49326 3.30133C9.30165 3.42257 10.036 3.76427 10.6222 4.28783C11.2085 4.8114 11.588 5.46723 11.7268 6.1892C11.7608 6.37107 11.9366 6.49783 12.1372 6.49783C12.1619 6.49783 12.1835 6.49508 12.2082 6.49232C12.4365 6.45925 12.5877 6.26636 12.5507 6.06245C12.384 5.18892 11.9212 4.39255 11.2146 3.76151C10.5081 3.13048 9.61637 2.71714 8.63827 2.56833C8.40995 2.53527 8.19705 2.67029 8.15694 2.87145C8.11683 3.07261 8.26493 3.26826 8.49326 3.30133Z" fill="#949494"/>
<path d="M15.1949 5.95494C14.9203 4.51651 14.1613 3.2076 12.9949 2.16598C11.8286 1.12436 10.363 0.446477 8.75244 0.201228C8.5272 0.165405 8.3143 0.303186 8.27419 0.504345C8.23716 0.70826 8.38835 0.898397 8.61668 0.93422C10.0545 1.15191 11.3658 1.7609 12.4087 2.68954C13.4516 3.62094 14.1304 4.79207 14.3741 6.07618C14.4081 6.25805 14.584 6.38481 14.7845 6.38481C14.8092 6.38481 14.8308 6.38206 14.8555 6.3793C15.0807 6.34899 15.235 6.1561 15.1949 5.95494Z" fill="#949494"/>
</svg>
