<svg width="16" height="17" viewBox="0 0 16 17" fill="none" xmlns="http://www.w3.org/2000/svg">
<path d="M7.85063 9.09223C7.86843 9.09223 7.88622 9.09223 7.90758 9.09223C7.9147 9.09223 7.92181 9.09223 7.92893 9.09223C7.93961 9.09223 7.95385 9.09223 7.96452 9.09223C9.00733 9.07634 9.85084 8.74894 10.4737 8.12276C11.8439 6.74325 11.6161 4.37838 11.5912 4.1527C11.5022 2.45851 10.6054 1.64797 9.86507 1.26971C9.31342 0.98682 8.66922 0.834248 7.95029 0.821533H7.92537C7.92182 0.821533 7.9147 0.821533 7.91114 0.821533H7.88978C7.49473 0.821533 6.71885 0.878748 5.975 1.257C5.22759 1.63525 4.31647 2.44579 4.22749 4.1527C4.20258 4.37838 3.9748 6.74325 5.34504 8.12276C5.96432 8.74894 6.80782 9.07634 7.85063 9.09223ZM5.17777 4.23216C5.17777 4.22263 5.18132 4.21309 5.18132 4.20673C5.29877 1.92768 7.11035 1.68293 7.88622 1.68293H7.90046C7.90758 1.68293 7.91826 1.68293 7.92893 1.68293C8.88988 1.702 10.5235 2.05165 10.6338 4.20673C10.6338 4.21627 10.6338 4.22581 10.6374 4.23216C10.641 4.25441 10.8901 6.41586 9.7583 7.55379C9.30986 8.00515 8.71193 8.22765 7.92537 8.23401C7.91826 8.23401 7.9147 8.23401 7.90758 8.23401C7.90046 8.23401 7.8969 8.23401 7.88978 8.23401C7.10679 8.22765 6.5053 8.00515 6.06042 7.55379C4.93219 6.42221 5.17421 4.25123 5.17777 4.23216Z" fill="#949494"/>
<path d="M15.2215 13.0145C15.2215 13.0114 15.2215 13.0082 15.2215 13.005C15.2215 12.9796 15.2179 12.9541 15.2179 12.9255C15.1966 12.2962 15.1503 10.8245 13.6057 10.3541C13.595 10.3509 13.5808 10.3477 13.5701 10.3445C11.9649 9.97898 10.6303 9.15254 10.6161 9.14301C10.3989 9.00633 10.1 9.05401 9.94695 9.2479C9.79391 9.4418 9.84729 9.7088 10.0644 9.84548C10.1249 9.88362 11.5414 10.7641 13.3138 11.171C14.1431 11.4348 14.2356 12.2262 14.2606 12.951C14.2606 12.9796 14.2606 13.005 14.2641 13.0304C14.2677 13.3165 14.2463 13.7583 14.1894 14.0126C13.6128 14.305 11.3528 15.3158 7.91471 15.3158C4.49088 15.3158 2.21663 14.3019 1.6365 14.0094C1.57955 13.7551 1.55464 13.3133 1.56175 13.0272C1.56175 13.0018 1.56531 12.9764 1.56531 12.9478C1.59023 12.2231 1.68276 11.4316 2.51203 11.1678C4.28445 10.7609 5.70096 9.87726 5.76147 9.8423C5.97857 9.70562 6.03196 9.43862 5.87892 9.24472C5.72588 9.05083 5.42692 9.00315 5.20981 9.13983C5.19558 9.14937 3.86804 9.9758 2.25578 10.3413C2.24154 10.3445 2.23086 10.3477 2.22018 10.3509C0.675544 10.8245 0.629276 12.2962 0.607921 12.9224C0.607921 12.951 0.607921 12.9764 0.604362 13.0018C0.604362 13.005 0.604362 13.0082 0.604362 13.0114C0.600803 13.1766 0.597244 14.0253 0.785875 14.4513C0.821466 14.5339 0.88553 14.6038 0.970948 14.6515C1.07772 14.7151 3.6367 16.1709 7.91827 16.1709C12.1998 16.1709 14.7588 14.7119 14.8656 14.6515C14.9475 14.6038 15.0151 14.5339 15.0507 14.4513C15.2286 14.0285 15.2251 13.1798 15.2215 13.0145Z" fill="#949494"/>
</svg>
